<mxfile host="app.diagrams.net" modified="2023-04-14T13:49:46.058Z" agent="Mozilla/5.0 (Windows NT 10.0; Win64; x64) AppleWebKit/537.36 (KHTML, like Gecko) Chrome/111.0.0.0 Safari/537.36" version="21.1.8" etag="iWGHFP_KUg_6hVbwnW_m" type="github">
  <diagram name="Page-1" id="mO7RLtkqOZLMYpk3Zcpu">
    <mxGraphModel>
      <root>
        <mxCell id="0" />
        <mxCell id="1" parent="0" />
      </root>
    </mxGraphModel>
  </diagram>
</mxfile>
